<svg width="50" height="50" viewBox="0 0 50 50" fill="none" xmlns="http://www.w3.org/2000/svg">
<path d="M28.125 1.65924e-05L34.3143 -1.52588e-05C34.7612 2.2344 36.0019 5.05329 38.172 7.84981C40.2983 10.59 43.116 12.5 46.875 12.5V18.75C41.3957 18.75 37.2783 16.2076 34.375 13.0356V34.375C34.375 43.0045 27.3794 50 18.75 50C10.1205 50 3.125 43.0045 3.125 34.375C3.125 25.7456 10.1206 18.75 18.75 18.75V25C13.5723 25 9.375 29.1973 9.375 34.375C9.375 39.5527 13.5723 43.75 18.75 43.75C23.9277 43.75 28.125 39.5527 28.125 34.375V1.65924e-05Z" fill="black"/>
</svg>
