<svg width="150" height="150" viewBox="0 0 150 150" fill="none" xmlns="http://www.w3.org/2000/svg">
<path d="M67.5666 9.37539C63.9055 5.71423 57.9695 5.71423 54.3084 9.37539L1.37294 62.3108C-0.457646 64.1414 -0.457646 67.1094 1.37294 68.94C3.20352 70.7705 6.17148 70.7705 8.00206 68.94L9.375 67.567V117.188C9.375 124.954 15.671 131.25 23.4375 131.25H28.5938C28.2864 129.736 28.125 128.168 28.125 126.563V88.2621C26.2057 87.5852 24.4039 86.4792 22.8688 84.9441C17.3771 79.4523 17.3771 70.5484 22.8688 65.0567L73.0584 14.8671L67.5666 9.37539Z" fill="#DA8B27"/>
<path d="M82.4334 18.7504C86.0945 15.0892 92.0305 15.0892 95.6916 18.7504L112.5 35.5588V23.4379C112.5 20.8491 114.599 18.7504 117.188 18.7504H126.562C129.151 18.7504 131.25 20.8491 131.25 23.4379V54.3088L148.627 71.6858C150.458 73.5164 150.458 76.4844 148.627 78.315C146.796 80.1455 143.829 80.1455 141.998 78.315L140.625 76.942V126.563C140.625 134.329 134.329 140.625 126.562 140.625H51.5625C43.796 140.625 37.5 134.329 37.5 126.563V76.942L36.1271 78.315C34.2965 80.1455 31.3285 80.1455 29.4979 78.315C27.6674 76.4844 27.6674 73.5164 29.4979 71.6858L82.4334 18.7504Z" fill="#DA8B27"/>
</svg>
