<svg width="150" height="150" viewBox="0 0 150 150" fill="none" xmlns="http://www.w3.org/2000/svg">
<path d="M0 46.875C0 69.6415 16.2304 88.6173 37.7516 92.8627C38.375 85.9894 40.1396 79.4457 42.8546 73.4225C34.6371 70.6536 29.3634 64.3521 28.1153 55.4142H23.4375V51.4172H27.8034V47.3474C27.8034 46.9113 27.8034 46.4753 27.8424 46.0756H23.4375V42.0785H28.2322C30.3372 30.3779 39.4978 23.4375 53.2582 23.4375C56.2208 23.4375 58.7935 23.7282 60.9375 24.2369V31.1047C58.8715 30.5959 56.3377 30.3416 53.2972 30.3416C44.6823 30.3416 38.8741 34.702 37.042 42.0785H55.0123V46.0756H36.4573C36.4183 46.5116 36.4183 46.984 36.4183 47.4564V51.4172H55.0123V55.4142H36.8471C37.953 61.0586 41.2358 65.076 46.2641 66.9348C56.033 50.7908 73.0834 39.5455 92.8627 37.7516C88.6173 16.2304 69.6415 0 46.875 0C20.9867 0 0 20.9867 0 46.875ZM150 98.4375C150 126.915 126.915 150 98.4375 150C69.9603 150 46.875 126.915 46.875 98.4375C46.875 69.9603 69.9603 46.875 98.4375 46.875C126.915 46.875 150 69.9603 150 98.4375ZM77.3438 110.832C77.9875 118.654 84.3392 124.752 95.7552 125.474V131.25H100.819V125.434C112.622 124.631 119.531 118.494 119.531 109.589C119.531 101.486 114.252 97.3143 104.811 95.1482L100.819 94.2256V78.5013C105.884 79.0629 109.102 81.7505 109.875 85.481H118.759C118.115 77.9397 111.463 72.0431 100.819 71.4013V65.625H95.7552V71.5216C85.6697 72.4843 78.8029 78.381 78.8029 86.7245C78.8029 94.1053 83.9101 98.7985 92.4076 100.724L95.7552 101.526V118.213C90.5622 117.451 87.1288 114.683 86.3563 110.832H77.3438ZM95.7123 93.0624C90.7339 91.9392 88.0301 89.6527 88.0301 86.203C88.0301 82.3522 90.9485 79.464 95.7552 78.6216V93.0624H95.7123ZM101.549 102.85C107.6 104.214 110.39 106.42 110.39 110.311C110.39 114.764 106.914 117.812 100.819 118.374V102.689L101.549 102.85Z" fill="#DA8B27"/>
</svg>
