<svg width="150" height="150" viewBox="0 0 150 150" fill="none" xmlns="http://www.w3.org/2000/svg">
<path d="M75 0L90.644 8.10276L108.063 10.7428L115.956 26.4934L128.497 38.8678L125.625 56.25L128.497 73.6322L115.956 86.0066L108.063 101.757L90.644 104.397L75 112.5L59.356 104.397L41.9371 101.757L34.0435 86.0066L21.5031 73.6322L24.375 56.25L21.5031 38.8678L34.0435 26.4934L41.9371 10.7428L59.356 8.10276L75 0Z" fill="#DA8B27"/>
<path d="M37.5 110.567V150L75 140.625L112.5 150V110.567L93.5802 113.434L74.9999 123.058L56.4196 113.434L37.5 110.567Z" fill="#DA8B27"/>
</svg>
