<svg width="150" height="150" viewBox="0 0 150 150" fill="none" xmlns="http://www.w3.org/2000/svg">
<path d="M138.402 0.700079C139.784 1.55417 140.625 3.06292 140.625 4.68751V145.313C140.625 147.901 138.526 150 135.938 150H107.812C105.224 150 103.125 147.901 103.125 145.313V131.25H93.75V145.313C93.75 147.901 91.6513 150 89.0625 150H4.6875C2.09866 150 0 147.901 0 145.313V93.75C0 91.7324 1.29108 89.9411 3.20518 89.3031L56.25 71.6214V42.1875C56.25 40.412 57.2531 38.7889 58.8412 37.9949L133.841 0.494878C135.294 -0.231658 137.02 -0.154014 138.402 0.700079ZM56.25 81.5036L9.375 97.1286V140.625H56.25V81.5036ZM65.625 140.625H84.375V126.563C84.375 123.974 86.4737 121.875 89.0625 121.875H107.812C110.401 121.875 112.5 123.974 112.5 126.563V140.625H131.25V12.272L65.625 45.0845V140.625Z" fill="#DA8B27"/>
<path d="M18.75 103.125H28.125V112.5H18.75V103.125Z" fill="#DA8B27"/>
<path d="M37.5 103.125H46.875V112.5H37.5V103.125Z" fill="#DA8B27"/>
<path d="M18.75 121.875H28.125V131.25H18.75V121.875Z" fill="#DA8B27"/>
<path d="M37.5 121.875H46.875V131.25H37.5V121.875Z" fill="#DA8B27"/>
<path d="M75 84.375H84.375V93.75H75V84.375Z" fill="#DA8B27"/>
<path d="M93.75 84.375H103.125V93.75H93.75V84.375Z" fill="#DA8B27"/>
<path d="M75 103.125H84.375V112.5H75V103.125Z" fill="#DA8B27"/>
<path d="M93.75 103.125H103.125V112.5H93.75V103.125Z" fill="#DA8B27"/>
<path d="M112.5 84.375H121.875V93.75H112.5V84.375Z" fill="#DA8B27"/>
<path d="M112.5 103.125H121.875V112.5H112.5V103.125Z" fill="#DA8B27"/>
<path d="M75 65.625H84.375V75H75V65.625Z" fill="#DA8B27"/>
<path d="M93.75 65.625H103.125V75H93.75V65.625Z" fill="#DA8B27"/>
<path d="M112.5 65.625H121.875V75H112.5V65.625Z" fill="#DA8B27"/>
<path d="M75 46.875H84.375V56.25H75V46.875Z" fill="#DA8B27"/>
<path d="M93.75 46.875H103.125V56.25H93.75V46.875Z" fill="#DA8B27"/>
<path d="M112.5 46.875H121.875V56.25H112.5V46.875Z" fill="#DA8B27"/>
<path d="M112.5 28.125H121.875V37.5H112.5V28.125Z" fill="#DA8B27"/>
</svg>
