<svg width="150" height="150" viewBox="0 0 150 150" fill="none" xmlns="http://www.w3.org/2000/svg">
<path d="M84.375 65.125C84.375 80.658 71.783 93.25 56.25 93.25C40.717 93.25 28.125 80.658 28.125 65.125C28.125 49.592 40.717 37 56.25 37C71.783 37 84.375 49.592 84.375 65.125Z" fill="#DA8B27"/>
<path d="M0 140.125C0 149.5 9.375 149.5 9.375 149.5H103.125C103.125 149.5 112.5 149.5 112.5 140.125C112.5 130.75 103.125 102.625 56.25 102.625C9.375 102.625 0 130.75 0 140.125Z" fill="#DA8B27"/>
<path d="M126.562 64.2871C139.566 50.9219 172.073 74.311 126.562 104.383C81.0519 74.311 113.559 50.9219 126.562 64.2871Z" fill="#DA8B27"/>
</svg>
