<svg width="50" height="50" viewBox="0 0 50 50" fill="none" xmlns="http://www.w3.org/2000/svg">
<path d="M15.625 32.8125C15.625 31.9496 16.3246 31.25 17.1875 31.25H23.4375C24.3004 31.25 25 31.9496 25 32.8125C25 33.6754 24.3004 34.375 23.4375 34.375H17.1875C16.3246 34.375 15.625 33.6754 15.625 32.8125Z" fill="white"/>
<path d="M15.625 26.5625C15.625 25.6996 16.3246 25 17.1875 25H32.8125C33.6754 25 34.375 25.6996 34.375 26.5625C34.375 27.4254 33.6754 28.125 32.8125 28.125H17.1875C16.3246 28.125 15.625 27.4254 15.625 26.5625Z" fill="white"/>
<path d="M15.625 20.3125C15.625 19.4496 16.3246 18.75 17.1875 18.75H32.8125C33.6754 18.75 34.375 19.4496 34.375 20.3125C34.375 21.1754 33.6754 21.875 32.8125 21.875H17.1875C16.3246 21.875 15.625 21.1754 15.625 20.3125Z" fill="white"/>
<path d="M15.625 14.0625C15.625 13.1996 16.3246 12.5 17.1875 12.5H32.8125C33.6754 12.5 34.375 13.1996 34.375 14.0625C34.375 14.9254 33.6754 15.625 32.8125 15.625H17.1875C16.3246 15.625 15.625 14.9254 15.625 14.0625Z" fill="white"/>
<path d="M9.375 0H40.625C44.0768 0 46.875 2.79822 46.875 6.25V43.75C46.875 47.2018 44.0768 50 40.625 50H9.375C5.92322 50 3.125 47.2018 3.125 43.75V40.625H6.25V43.75C6.25 45.4759 7.64911 46.875 9.375 46.875H40.625C42.3509 46.875 43.75 45.4759 43.75 43.75V6.25C43.75 4.52411 42.3509 3.125 40.625 3.125H9.375C7.64911 3.125 6.25 4.52411 6.25 6.25V9.375H3.125V6.25C3.125 2.79822 5.92322 0 9.375 0Z" fill="white"/>
<path d="M3.125 15.625V14.0625C3.125 13.1996 3.82456 12.5 4.6875 12.5C5.55045 12.5 6.25 13.1996 6.25 14.0625V15.625H7.8125C8.67544 15.625 9.375 16.3246 9.375 17.1875C9.375 18.0504 8.67544 18.75 7.8125 18.75H1.5625C0.699555 18.75 0 18.0504 0 17.1875C0 16.3246 0.699555 15.625 1.5625 15.625H3.125Z" fill="white"/>
<path d="M3.125 25V23.4375C3.125 22.5746 3.82456 21.875 4.6875 21.875C5.55045 21.875 6.25 22.5746 6.25 23.4375V25H7.8125C8.67544 25 9.375 25.6996 9.375 26.5625C9.375 27.4254 8.67544 28.125 7.8125 28.125H1.5625C0.699555 28.125 0 27.4254 0 26.5625C0 25.6996 0.699555 25 1.5625 25H3.125Z" fill="white"/>
<path d="M3.125 34.375V32.8125C3.125 31.9496 3.82456 31.25 4.6875 31.25C5.55045 31.25 6.25 31.9496 6.25 32.8125V34.375H7.8125C8.67544 34.375 9.375 35.0746 9.375 35.9375C9.375 36.8004 8.67544 37.5 7.8125 37.5H1.5625C0.699555 37.5 0 36.8004 0 35.9375C0 35.0746 0.699555 34.375 1.5625 34.375H3.125Z" fill="white"/>
</svg>
